<svg xmlns="http://www.w3.org/2000/svg" viewBox="0 0 512 512" width="512" height="512" fill="none">
  <defs>
    <linearGradient id="appGrad" x1="0%" y1="0%" x2="100%" y2="100%">
      <stop offset="0%" stop-color="#f97316"/>
      <stop offset="40%" stop-color="#ea580c"/>
      <stop offset="100%" stop-color="#c2410c"/>
    </linearGradient>
  </defs>
  <rect width="512" height="512" rx="120" fill="url(#appGrad)"/>
  <!-- Basket -->
  <path d="M140 310 C140 310, 160 410, 256 410 C352 410, 372 310, 372 310 Z" fill="#ffffff" fill-opacity="0.95"/>
  <ellipse cx="256" cy="310" rx="116" ry="24" fill="#f59e0b"/>
  <path d="M190 326 L230 402 M256 332 L256 410 M322 326 L282 402" stroke="#ea580c" stroke-width="6" stroke-linecap="round"/>
  <!-- Stem -->
  <path d="M256 310 Q254 210 256 120" stroke="#ffffff" stroke-width="14" stroke-linecap="round"/>
  <!-- Leaves -->
  <path d="M256 115 C275 80, 256 50, 256 50 C256 50, 237 80, 256 115 Z" fill="#f59e0b"/>
  <path d="M254 215 C200 200, 170 145, 170 145 C170 145, 225 140, 254 185 Z" fill="#ffffff"/>
  <path d="M258 190 C312 175, 342 120, 342 120 C342 120, 287 115, 258 160 Z" fill="#f59e0b"/>
</svg>
